<svg xmlns="http://www.w3.org/2000/svg" width="920" height="920">
  <style>
    @media (prefers-color-scheme: dark) {
      svg {
        background-color: #fff;
      }
    }
  </style>
  <path
    d="M434 32h12v1l-36 9-23 8-24 11-16 9-24 16-16 13-12 11-14 14-11 14-10 14-12 21-8 17-9 25-4 17-3 17-1 10v34l1 17 4 23 7 25 11 26 12 24 12 19 13 18 11 14 9 10 7 8 11 12 12 11 10 9 11 8 1-8 9-32 4 2 8 11 11 14 14 17 10 13 11 14 13 16 10 13 11 14 9 11 1 3-26 7-23 7-30 8-69 20h-3l3-11 7-22-5-2-16-11-12-9-11-9-14-12-8-8-8-7-11-12-11-12-11-14-11-14-14-21-10-17-10-19-7-16-4-10-4-11-6-19-6-27v-6l-2 1-6 22-4 18-4 26-1 10v53l3 24 5 24 7 25 4 12 5 11 7 16 13 25 13 20 14 19 10 11 7 8 8 9 8 7 13 11 15 11 19 12 23 12 19 8 22 7 27 6 22 3h44l27-4 26-7 24-10 21-11 16-11 16-13 14-14 9-11 9-12 11-19 7-15 6-15 6-24 3-21v-41l-3-21-4-16-3-8 1-3 12 22 14 28 8 20 5 17 5 24 2 15v42l-4 24-6 23-4 11-14 29-9 14-11 14-11 12-4 5-8 7-13 11-21 14-22 12-21 9-24 8-19 5-23 4-21 2h-43l-30-3-31-6-35-10-18-7-18-8-25-13-21-13-18-13-11-9-11-9-10-9-29-29-9-11-12-15-13-18-13-21-14-25-11-24-5-13-3-8-10-32-6-26-5-33-2-23v-52l3-30 5-31 9-33 8-25 4-9 5-13 7-15 14-27 13-21 12-17 9-12 9-11 11-13 33-33 11-9 16-13 18-13 20-13 17-10 23-12 22-10 17-6 8-3 29-9 29-7 19-4Z"
    fill="#07355e" />
  <path
    d="M488 55h46l28 3 31 6 26 8 20 7 8 4 7 3 9 4 7 3v2l6 2 16 9 27 18 13 10 16 13 13 12 17 16 7 8 9 10 8 10 10 13 11 16 15 24 13 24 13 31 3 10 3 8 8 28 4 15 5 32 3 27v48l-2 24-4 28-6 28-7 25-9 25-11 26-10 20-14 24-12 18-14 19-11 13-9 11-29 29v-3l12-21 8-16 6-15 6-18 4-18 3-22v-47l-4-27-5-20-3-8 2-9 6-25 4-25 1-11v-53l-3-24-5-25-5-19-5-15-4-10-9-21-9-17-12-19-10-14-11-14-14-15-12-12-11-9-11-9-17-12-25-15-25-12-15-6-26-7-26-4-13-1h-30l-25 3-27 6-13 4-10 4-18 8-16 9-18 13-15 13-12 13-10 13-9 15-8 15-4 10-6 16-5 21-3 21v47l4 26 4 14 1 5-4-4-9-15-12-21-11-24-4-9-7-24-4-21-2-21v-25l4-27 4-14 5-16 5-12 10-19 10-15 8-11 12-14 15-15 11-9 15-11 16-10 19-10 15-6 33-10 29-6Z"
    fill="#08345e" />
  <path
    d="M599 252h4l-1 4-6 19-3 7-4 11 5 2 19 14 11 9 14 12 8 7 30 30 9 11 11 13 14 19 14 21 11 19 12 23 10 22 4 12 3 7 8 24 4 17h2l1-3 2 3 7 27 4 27v47l-4 27-5 20-9 24-8 16-10 18-6 10-13 11-14 11-16 12-15 10-28 17-21 11-20 9-12 5-10 4-31 11-32 8-26 5-26 4h-8l4-2 18-5 16-4 14-5 15-7 21-10 20-12 17-12 13-11 12-11 8-8 9-11 12-16 9-15 7-12 7-14 4-12 3-7 6-22 4-24 1-8v-38l-3-23-6-25-8-24-5-12-10-21-12-21-15-22-14-19-9-10-9-11-8-8-7-8-9-9-8-7-11-10-7-6-3-1-2 10-6 19h-2l-12-17-14-18-13-18-9-12-12-16-14-19-14-19-5-7v-2l19-5 31-7 38-9 24-6 22-5Z"
    fill="#0676b8" />
  <path
    d="m458 366 2 2 5 17 7 21 5 17 2 3 10 3 8 3 27 9 14 4v2l-10 4-17 5-11 4-18 5-4 2-7 23-5 14-6 21-2 2-3-7-5-17-6-17-5-17-1-2-41-14-17-5-2-2 15-5 7-3 17-5 20-7 4-8 5-16 9-27Z"
    fill="#0976b8" />
</svg>